<svg class="icon" viewBox="0 0 1024 1024" xmlns="http://www.w3.org/2000/svg" width="200" height="200"><defs><style/></defs><path d="M521.3 79.4c39.6-3.2 79.9 2.7 116.7 17.6 55.4 22.1 102.4 64.3 130.4 116.9 18.1 33.6 28.4 71.3 30 109.4 1.7 37.1-4.7 74.6-18.9 109-23.7 58.2-69.8 106.9-126.6 133.9-35.2 16.9-74.4 25.5-113.5 24.9-38-.3-75.8-9.3-109.9-26-26.9-13.2-51.3-31.1-72.1-52.7-24.9-25.9-44.3-57.1-56.4-90.9-18-49.8-19.8-105.2-5.5-156.2 8.7-30.9 23.2-60.2 42.7-85.7 21.3-28 48.5-51.6 79.2-68.8 31.8-17.7 67.5-28.5 103.9-31.4zM304 551.6c6.8-1.8 14.4-.2 20 4.1 26.2 19.4 54.8 35.5 85.1 47.7 51.8 20.8 108.4 29.3 164 24.4 7.4-.8 15.1 2.2 20 8 6.5 7.4 7.3 18.9 2.3 27.3-23.6 43.1-32.8 93.8-26 142.4 5.2 38.4 20.5 75.3 43.7 106.4 5.3 6.7 6.5 16.4 2.8 24.2-2.8 6.1-8.3 10.9-14.9 12.7-3.6 1-7.4.8-11.1.8H123.8c-12.7.2-23.8-11.7-22.8-24.4 5.1-77 27-153 64.8-220.4 32.4-57.9 76.6-109.5 129.9-149 2.4-2.1 5.3-3.5 8.3-4.2z"/><path d="M795.7 564.6c31.1-.5 62.3 5.8 90.5 18.8 35.7 16.3 66.7 42.9 88.1 75.8 19.6 29.7 31.3 64.6 33.6 100.1 2.5 36.3-4.5 73.3-20.6 106-13.7 28.2-33.9 53.2-58.5 72.6-23.5 18.6-51.1 32.1-80.3 39.1-39.7 9.6-82.3 7.3-120.6-6.7-49.7-17.8-91.8-55.4-115.4-102.5-14.9-29.6-22.7-62.9-22.2-96.1.2-34 8.9-67.8 25.2-97.7 15.1-27.8 36.6-52.1 62.3-70.5 34.2-24.5 75.9-38.2 117.9-38.9m85.7 133.5c-31.1 34.3-62.2 68.6-93.3 102.8-24.2-21.8-48.2-43.7-72.4-65.6-3.6-3.3-8.3-5.5-13.2-6.1-9.1-1.2-18.6 3.6-23 11.6-4.4 7.6-3.9 17.8 1.2 24.9 1.7 2.6 4.2 4.6 6.5 6.7 28.4 25.7 56.7 51.4 85.1 77.2 3 2.9 6.6 5.4 10.7 6.5 8.3 2.6 18-.2 23.8-6.6 34.8-38.4 69.7-76.8 104.5-115.3 3.4-3.8 7.4-7.4 9.1-12.3 3-7.6 1.7-16.8-3.5-23.2-5-6.3-13.5-9.7-21.5-8.4-5.3.9-10.4 3.7-14 7.8z"/></svg>