<svg class="icon" viewBox="0 0 1143 1024" xmlns="http://www.w3.org/2000/svg" width="223.242" height="200"><defs><style/></defs><path d="M74.57 125.098a125.098 125.098 0 10250.196 0 125.098 125.098 0 10-250.196 0zM520.943 276.1H49.613A50.86 50.86 0 00.016 328.226l2.527 364.238a31.59 31.59 0 005.055 16.743c26.536 41.068 49.913 18.639 61.285 1.58a4.107 4.107 0 017.898 2.527l1.895 243.879a51.492 51.492 0 0031.59 47.385 221.133 221.133 0 00176.908 1.896 50.229 50.229 0 0028.747-44.859c2.527-78.344 9.793-295.37 14.847-415.415 6.95-164.586 198.073-179.75 212.92-231.874a29.063 29.063 0 00-22.745-38.224z"/><path d="M1143.591 58.758H374.68V207.55s268.203-2.527 217.343 90.981S374.68 521.244 374.68 521.244v84.346h341.81S569.591 841.57 558.535 860.21c-27.8 47.385 5.054 98.246 53.704 54.335a1113.248 1113.248 0 00104.248-148.79s14.216 31.59 23.377 50.544a35.065 35.065 0 0063.181 0 456.482 456.482 0 0020.85-49.913s63.18 120.676 74.87 138.682c31.59 55.284 100.141 26.852 57.178-52.44S806.205 606.221 806.205 606.221h337.386zm-34.75 132.68h-38.855L932.567 399.935l-161.111-94.771L633.72 457.43l-28.431-30.01 160.795-177.223 157.953 94.771 131.1-199.336h53.388z"/></svg>