<svg class="icon" viewBox="0 0 1024 1024" xmlns="http://www.w3.org/2000/svg" width="200" height="200"><defs><style/></defs><path d="M591.27 0c32.133 0 58.28 26.135 58.28 58.252 0 43.41 23.837 84.096 62.22 106.17l1.163.669a125.766 125.766 0 0062.988 17.07c21.248 0 42.141-5.58 60.428-16.128l1.309-.756a56.762 56.762 0 0128.323-7.61 56.995 56.995 0 0149.216 28.375l80.814 139.916c15.651 27.095 6.325 61.847-20.77 77.492a124.73 124.73 0 00-62.244 107.858v1.384a124.73 124.73 0 0062.238 107.858c27.1 15.64 36.421 50.397 20.782 77.492l-80.82 139.916a56.995 56.995 0 01-49.216 28.375 56.815 56.815 0 01-28.323-7.604l-1.397-.815a120.925 120.925 0 00-60.352-16.11 125.597 125.597 0 00-62.888 17.047l-1.356.785c-38.313 22.022-62.115 62.65-62.115 106.013v1.63c0 31.272-25.46 56.721-56.756 56.721H431.14c-31.296 0-56.75-25.449-56.75-56.727v-1.624c0-43.362-23.808-83.99-62.138-106.024l-1.338-.768a125.545 125.545 0 00-62.883-17.048c-21.22 0-42.09 5.568-60.358 16.105l-1.402.815a56.78 56.78 0 01-28.317 7.604 56.977 56.977 0 01-49.21-28.375L27.917 698.042c-15.64-27.095-6.318-61.847 20.783-77.492l25.74-14.848c24.698-14.255 38.958-41.129 37.212-70.12a399.983 399.983 0 01-.71-23.582c0-7.756.24-15.686.71-23.581 1.746-28.992-12.509-55.866-37.213-70.12l-24.343-14.04c-27.869-16.087-37.457-51.84-21.364-79.698L107.94 187.44a58.59 58.59 0 0150.601-29.179c10.188 0 20.26 2.706 29.132 7.826a120.809 120.809 0 0060.352 16.105 125.556 125.556 0 0062.889-17.042l1.344-.774c38.324-22.033 62.138-62.662 62.138-106.024C374.39 26.135 400.527 0 432.666 0h158.603zm-88.03 325.818c-102.824 0-186.181 83.357-186.181 186.182 0 102.825 83.357 186.182 186.181 186.182 102.825 0 186.182-83.357 186.182-186.182 0-102.825-83.357-186.182-186.182-186.182z" data-spm-anchor-id="a313x.7781069.0.i4"/><path d="M776.695 221.09c25.57 0 48.582 13.406 58.182 34.91 9.123 11.235 5.254 25.455-5.818 29.09-10.88 8.92-24.542 5.493-29.091-5.817-6.825-7.209-14.43-11.637-23.273-11.637-2.636 0-6.051.815-11.636 0v5.819c-11.043 4.346-25.286.581-29.091-11.637-8.914-9.646-5.586-23.33 5.818-29.09 11.537-8.379 23.529-11.637 34.909-11.637zM863.968 320c10.688-9.111 24.977-5.539 29.09 5.818l17.455 29.091c9.111 10.682 5.539 24.978-5.818 29.091-10.688 9.111-24.978 5.539-29.091-5.818l-17.455-29.091c-9.11-10.682-5.538-24.978 5.819-29.091z"/></svg>