<svg class="icon" viewBox="0 0 1251 1024" xmlns="http://www.w3.org/2000/svg" width="244.336" height="200"><defs><style/></defs><path d="M494.421 718.62l298.041-169.756c27.364-15.701 27.364-60.302 0-75.947L494.364 303.104c-24.803-14.052-53.93 6.315-53.93 37.945v339.627c0 31.63 29.127 51.996 53.93 37.944zM1111.324 1.422H142.222C80.896 1.48 30.834 59.051 30.834 129.48v762.823c0 70.656 49.664 128 111.331 128h969.16c61.326 0 111.331-57.571 111.331-128V129.48c0-70.77-49.664-128-111.332-128zM254.236 892.587c0 23.609-15.928 42.837-37.66 42.837h-73.728c-20.764 0-37.604-18.204-37.604-42.837V808.39c0-23.609 15.93-42.837 37.604-42.837h73.899c20.707 0 37.546 18.204 37.546 42.837v84.082zm0-339.627c0 23.723-15.928 42.837-37.66 42.837h-73.728c-20.708 0-37.604-18.147-37.604-42.837v-84.196c0-23.608 15.93-42.837 37.604-42.837h73.899c20.707 0 37.546 18.205 37.546 42.837v84.082zm0-339.57c0 23.61-15.928 42.838-37.66 42.838h-73.728c-20.708 0-37.604-18.205-37.604-42.838v-84.138c0-23.666 15.93-42.78 37.604-42.78h73.899c20.707 0 37.546 18.147 37.546 42.78v84.081zm670.55 722.034H328.818V86.357h595.968v849.01zm223.402-42.837c0 23.609-15.928 42.837-37.546 42.837h-73.785c-20.65 0-37.49-18.204-37.49-42.837V808.39c0-23.609 15.929-42.837 37.547-42.837h73.785c20.65 0 37.49 18.204 37.49 42.837v84.082zm0-339.627c0 23.723-15.928 42.837-37.546 42.837h-73.785c-20.65 0-37.49-18.204-37.49-42.837v-84.196c0-23.608 15.929-42.837 37.547-42.837h73.785c20.65 0 37.49 18.205 37.49 42.837v84.082zm0-339.57c0 23.61-15.928 42.838-37.546 42.838h-73.785c-20.65 0-37.49-18.205-37.49-42.838v-84.138c0-23.666 15.929-42.78 37.547-42.78h73.785c20.65 0 37.49 18.147 37.49 42.78v84.081z"/></svg>